#!OML:ASF F:\VICON\USERDATA\INSTALL\rory3\rory3.ASF
:FULLY-SPECIFIED
:DEGREES
1171
root 3.9188 18.4898 4.61841 -176.306 -9.99806 -180.571
lowerback 10.9411 0.640276 -1.22819
upperback 3.27907 0.463352 0.778501
thorax -2.73284 0.111071 1.44461
lowerneck -15.899 4.86397 -9.56209
upperneck 37.0337 7.28135 -0.192809
head 15.3262 0.553263 2.50979
rclavicle 1.08338e-014 -6.16232e-015
rhumerus -33.3405 -20.2555 -69.5098
rradius 39.8087
rwrist 9.46842
rhand -22.9204 -5.23793
rfingers 7.12502
rthumb 3.51993 -35.1886
lclavicle 1.08338e-014 -6.16232e-015
lhumerus -23.9735 11.1443 74.9437
lradius 54.1597
lwrist 6.5027
lhand -22.1441 33.0368
lfingers 7.12502
lthumb 4.26962 62.9738
rfemur -1.9232 1.62539 23.3178
rtibia 7.35503e-015
rfoot -0.856957 -9.34585
rtoes 9.84625
lfemur -72.7439 8.2021 -23.3433
ltibia 91.6238
lfoot -20.7476 -12.8926
ltoes -20.1928
1172
root 3.91437 18.4735 4.66909 -176.295 -10.1792 -180.459
lowerback 10.9788 0.563001 -1.0413
upperback 3.23314 0.385948 0.840288
thorax -2.79757 0.0742935 1.41347
lowerneck -15.9302 4.9275 -9.49043
upperneck 36.9199 7.40235 -0.23353
head 15.2762 0.625433 2.50149
rclavicle 2.46493e-014 -6.16232e-015
rhumerus -34.2769 -20.9026 -68.5219
rradius 37.9094
rwrist 9.8396
rhand -22.7965 -5.42648
rfingers 7.12502
rthumb 3.63965 -35.3752
lclavicle 2.46493e-014 -6.16232e-015
lhumerus -25.6139 12.0619 74.8393
lradius 52.3867
lwrist 5.09351
lhand -21.8903 31.8477
lfingers 7.12502
lthumb 4.51467 61.7795
rfemur -2.1293 1.45731 23.408
rtibia -6.55989e-015
rfoot -0.579851 -9.38195
rtoes 8.68286
lfemur -72.7928 8.05515 -23.1056
ltibia 92.4289
lfoot -20.8129 -11.448
ltoes -20.4169
1173
root 3.9122 18.4792 4.72017 -176.257 -10.4188 -180.602
lowerback 11.0242 0.47031 -1.14971
upperback 3.15063 0.258932 0.85947
thorax -2.90479 0.0158657 1.51135
lowerneck -15.9912 5.00574 -9.56532
upperneck 36.9772 7.50741 -0.0891491
head 15.2971 0.675356 2.5941
rclavicle 1.09332e-015 -8.94531e-015
rhumerus -35.0794 -21.65 -67.4688
rradius 35.8027
rwrist 10.3239
rhand -22.6413 -5.79664
rfingers 7.12502
rthumb 3.78952 -35.7427
lclavicle 1.09332e-015 -8.94531e-015
lhumerus -27.4232 12.7522 74.689
lradius 50.8599
lwrist 3.53084
lhand -22.457 31.0049
lfingers 7.12502
lthumb 3.96743 60.9477
rfemur -2.29474 1.2116 23.217
rtibia -3.77691e-015
rfoot -0.432265 -9.40917
rtoes 8.95641
lfemur -72.5556 7.84853 -23.0643
ltibia 93.2417
lfoot -20.9113 -10.5721
ltoes -19.7969
1174
root 3.90205 18.4884 4.76407 -176.143 -10.4328 -180.885
lowerback 10.8361 0.448528 -1.38177
upperback 3.14896 0.210667 0.836159
thorax -2.80247 -0.00630907 1.62409
lowerneck -16.123 5.07892 -9.55204
upperneck 37.0279 7.65004 -0.106708
head 15.346 0.729654 2.61271
rclavicle 1.2921e-015 -3.97569e-015
rhumerus -35.7001 -22.7053 -66.2868
rradius 33.5764
rwrist 11.2483
rhand -22.2266 -6.17572
rfingers 7.12502
rthumb 4.18998 -36.1143
lclavicle 1.2921e-015 -3.97569e-015
lhumerus -29.0142 13.7379 74.5155
lradius 49.1695
lwrist 1.30994
lhand -23.0016 29.6831
lfingers 7.12502
lthumb 3.4416 59.635
rfemur -2.50364 1.18004 22.8228
rtibia 7.35503e-015
rfoot -0.334071 -9.45174
rtoes 9.17063
lfemur -72.2362 7.77901 -23.1155
ltibia 94.246
lfoot -21.3079 -10.3589
ltoes -19.6761
1175
root 3.89037 18.484 4.81082 -176.151 -10.4489 -180.815
lowerback 10.7466 0.423955 -1.25985
upperback 3.13912 0.196375 0.907786
thorax -2.76275 -0.0132214 1.63142
lowerneck -16.0226 5.18497 -9.37603
upperneck 36.9783 7.80143 -0.290494
head 15.3104 0.794758 2.52567
rclavicle 1.11319e-014 -5.56597e-015
rhumerus -36.4533 -23.7715 -64.9843
rradius 31.4939
rwrist 12.3189
rhand -21.8133 -6.73545
rfingers 7.12502
rthumb 4.58906 -36.6657
lclavicle 1.11319e-014 -5.56597e-015
lhumerus -30.4186 14.6496 74.421
lradius 47.2417
lwrist -0.154266
lhand -23.8279 28.8157
lfingers 7.12502
lthumb 2.64361 58.7791
rfemur -2.66329 1.16851 22.8131
rtibia -1.09332e-014
rfoot -0.227797 -9.47923
rtoes 9.3278
lfemur -71.928 7.80093 -22.7984
ltibia 95.2838
lfoot -21.6128 -10.2701
ltoes -20.813
1176
root 3.88199 18.4682 4.85732 -176.262 -10.4005 -180.659
lowerback 10.8178 0.430446 -1.1324
upperback 3.0937 0.222932 1.01488
thorax -2.84982 0.00103666 1.66756
lowerneck -15.7905 5.31973 -9.18448
upperneck 36.9058 7.97138 -0.510038
head 15.2357 0.864579 2.41822
rclavicle -2.79292e-014 -7.15625e-015
rhumerus -37.4927 -24.7452 -63.5733
rradius 29.7711
rwrist 13.3779
rhand -21.2718 -7.26235
rfingers 7.12502
rthumb 5.11194 -37.1807
lclavicle -2.79292e-014 -7.15625e-015
lhumerus -31.7991 15.3914 74.2824
lradius 45.2355
lwrist -1.39338
lhand -24.3462 28.2715
lfingers 7.12502
lthumb 2.14296 58.2405
rfemur -2.73491 1.22585 22.9342
rtibia 2.88238e-015
rfoot -0.159503 -9.51999
rtoes 10.2094
lfemur -71.5223 7.94247 -22.3844
ltibia 96.2861
lfoot -21.4366 -10.2529
ltoes -21.7359
1177
root 3.87493 18.463 4.90547 -176.226 -10.407 -180.685
lowerback 10.6719 0.455841 -1.18782
upperback 3.1241 0.253662 1.08451
thorax -2.73978 0.015036 1.7669
lowerneck -15.8323 5.3639 -9.06113
upperneck 36.9409 8.06042 -0.661028
head 15.2757 0.892477 2.35048
rclavicle 6.95746e-015 5.56597e-015
rhumerus -38.4813 -25.7978 -62.1295
rradius 28.2481
rwrist 14.4011
rhand -20.8778 -7.66599
rfingers 7.12502
rthumb 5.49238 -37.5748
lclavicle 6.95746e-015 5.56597e-015
lhumerus -32.8829 16.2432 74.142
lradius 43.0656
lwrist -2.98043
lhand -24.0819 28.0864
lfingers 7.12502
lthumb 2.39825 58.0526
rfemur -2.94462 1.22089 22.8637
rtibia 6.36111e-015
rfoot 0.00824704 -9.6046
rtoes 12.1969
lfemur -71.0983 7.90738 -22.1077
ltibia 97.1879
lfoot -20.9103 -10.67
ltoes -21.9223
1178
root 3.86784 18.4601 4.95465 -176.194 -10.4199 -180.639
lowerback 10.5477 0.486968 -1.16946
upperback 3.12073 0.302339 1.16112
thorax -2.67721 0.0394002 1.82974
lowerneck -15.8508 5.38174 -9.03336
upperneck 37.0621 8.0422 -0.572632
head 15.3337 0.889039 2.38169
rclavicle -7.15625e-015 -9.93923e-015
rhumerus -39.5684 -27.0016 -60.5159
rradius 26.7804
rwrist 15.6892
rhand -20.4143 -7.93359
rfingers 7.12502
rthumb 5.93982 -37.8303
lclavicle -7.15625e-015 -9.93923e-015
lhumerus -33.9418 17.1542 73.9307
lradius 40.8806
lwrist -4.62507
lhand -23.448 28.616
lfingers 7.12502
lthumb 3.01048 58.5745
rfemur -3.18159 1.21465 22.8676
rtibia -5.91384e-015
rfoot 0.249826 -9.67631
rtoes 13.0736
lfemur -70.5776 7.86096 -21.6869
ltibia 98.008
lfoot -19.24 -10.7611
ltoes -18.1033
1179
root 3.85428 18.4506 4.99899 -176.303 -10.3376 -180.614
lowerback 10.61 0.54307 -1.06362
upperback 3.0717 0.39097 1.17481
thorax -2.76528 0.0854352 1.77299
lowerneck -15.6656 5.42062 -8.99481
upperneck 37.1215 8.00916 -0.488808
head 15.3145 0.884714 2.39786
rclavicle -1.11319e-014 4.37326e-015
rhumerus -40.8556 -28.4394 -58.6762
rradius 25.294
rwrist 17.4654
rhand -19.8407 -8.199
rfingers 7.12502
rthumb 6.49363 -38.0795
lclavicle -1.11319e-014 4.37326e-015
lhumerus -35.0558 17.9123 73.6155
lradius 38.6424
lwrist -6.24807
lhand -23.5506 28.1905
lfingers 7.12502
lthumb 2.91141 58.1504
rfemur -3.24045 1.29365 22.8314
rtibia -1.46107e-014
rfoot 0.492532 -9.72597
rtoes 12.5
lfemur -69.7053 7.8713 -21.2325
ltibia 98.8159
lfoot -19.1065 -11.0333
ltoes -19.4094
1180
root 3.83455 18.4463 5.0376 -176.414 -10.1912 -180.692
lowerback 10.4782 0.600136 -1.01282
upperback 3.10913 0.471192 1.15292
thorax -2.65643 0.123857 1.7115
lowerneck -15.4292 5.4832 -8.82963
upperneck 37.0614 8.05869 -0.651904
head 15.2469 0.908452 2.29966
rclavicle -9.93923e-015 -1.98785e-015
rhumerus -42.1637 -29.823 -56.8586
rradius 24.0677
rwrist 19.4304
rhand -19.3469 -8.67943
rfingers 7.12502
rthumb 6.97033 -38.5447
lclavicle -9.93923e-015 -1.98785e-015
lhumerus -36.0731 18.6673 73.2552
lradius 36.3184
lwrist -7.86535
lhand -23.7651 27.0764
lfingers 7.12502
lthumb 2.70425 57.0391
rfemur -3.22379 1.42609 22.6403
rtibia 3.72721e-016
rfoot 0.600781 -9.78484
rtoes 12.7184
lfemur -68.6133 7.87306 -20.8821
ltibia 99.5465
lfoot -19.1549 -11.8642
ltoes -20.2089
